<svg xmlns="http://www.w3.org/2000/svg" width="270" height="312.5" viewBox="0 0 270 312.5"><defs><clipPath id="a"><path d="M0 250h216V0H0v250z"/></clipPath><clipPath id="b"><path d="M0 250h216V0H0v250z"/></clipPath></defs><g clip-path="url(#a)" transform="matrix(1.25 0 0 -1.25 0 312.5)"><path d="M181.413 61.055c0-.28-.302-.506-.67-.506H35.836c-.37 0-.67.226-.67.506s.3.509.67.509h144.907c.368 0 .67-.23.67-.51" fill="#3da33c"/></g><text transform="matrix(1.25 0 0 1.24784 81.397 223.097)" style="-inkscape-font-specification:OpenSans" font-weight="400" font-size="18.78" font-family="Open Sans" fill="#fff"><tspan x="0 10.31 20.751457 32.094337 36.977032 48.282352 58.723808 70.254486 75.005722" y="0">São Paulo</tspan></text><g clip-path="url(#b)" transform="matrix(1.25 0 0 -1.25 0 312.5)"><path d="M117.202 210.5c0-.961-.775-1.735-1.733-1.735H101.11a1.73 1.73 0 0 0-1.733 1.735v14.355c0 .958.774 1.736 1.733 1.736h14.358c.958 0 1.733-.778 1.733-1.736V210.5zm21.39 0c0-.961-.775-1.735-1.732-1.735H122.5c-.957 0-1.734.774-1.734 1.735v14.355c0 .958.777 1.736 1.735 1.736h14.359c.957 0 1.732-.778 1.732-1.736V210.5zm0-42.782c0-.96-.775-1.735-1.732-1.735H122.5c-.957 0-1.734.775-1.734 1.735v14.354c0 .96.777 1.736 1.735 1.736h14.359c.957 0 1.732-.775 1.732-1.736v-14.354zM95.81 189.124c0-.962-.775-1.737-1.733-1.737H79.72c-.961 0-1.735.775-1.735 1.737v14.352c0 .959.774 1.735 1.735 1.735h14.356c.958 0 1.733-.776 1.733-1.735v-14.352zm21.392 0c0-.962-.775-1.737-1.733-1.737H101.11c-.96 0-1.733.775-1.733 1.737v14.352c0 .959.774 1.735 1.733 1.735h14.358c.958 0 1.733-.776 1.733-1.735v-14.352zM95.81 167.718c0-.96-.775-1.735-1.733-1.735H79.72c-.961 0-1.735.775-1.735 1.735v14.354c0 .96.774 1.736 1.735 1.736h14.356c.958 0 1.733-.775 1.733-1.736v-14.354zm21.392 0c0-.96-.775-1.735-1.733-1.735H101.11c-.96 0-1.733.775-1.733 1.735v14.354c0 .96.774 1.736 1.733 1.736h14.358c.958 0 1.733-.775 1.733-1.736v-14.354zM95.81 146.306a1.73 1.73 0 0 0-1.733-1.734H79.72a1.73 1.73 0 0 0-1.735 1.734v14.353c0 .959.774 1.734 1.735 1.734h14.356c.958 0 1.733-.775 1.733-1.734v-14.353zm21.392 0a1.73 1.73 0 0 0-1.733-1.734H101.11a1.73 1.73 0 0 0-1.733 1.734v14.353c0 .959.774 1.734 1.733 1.734h14.358c.958 0 1.733-.775 1.733-1.734v-14.353z" fill="#3da33c"/><path d="M96.7 217.678c0-5.416-4.387-9.806-9.803-9.806-5.413 0-9.803 4.39-9.803 9.806 0 5.418 4.39 9.805 9.803 9.805a9.8 9.8 0 0 0 9.803-9.805" fill="#cd1e25"/></g><text transform="matrix(1.25 0 0 1.24783 51.855 169.545)" style="-inkscape-font-specification:OpenSans-Bold" font-weight="700" font-size="24.887" font-family="Open Sans" fill="#fff"><tspan x="0 8.262351 28.54493 42.30722 56.71656 64.954025 79.438026 98.302071 112.7363" y="0">INSTITUTO</tspan><tspan x="12.36864 26.081158 40.017654 58.433735 72.370232 88.894936 106.11646" y="21.353">FEDERAL</tspan></text><text transform="matrix(1.25 0 0 1.24784 90.513 262.393)" style="-inkscape-font-specification:OpenSans" font-weight="400" font-size="18.78" font-family="Open Sans" fill="#fff"><tspan x="0 11.849928 22.291386 39.756413 51.268307 62.798981" y="0">Câmpus</tspan></text><text transform="matrix(1.25 0 0 1.24784 78.8 289.156)" style="-inkscape-font-specification:OpenSans" font-weight="400" font-size="19.055" font-family="Open Sans" fill="#fff"><tspan x="0 11.470809 16.291597 24.065834 34.660137 43.730076 48.550865 57.620808 68.215111 79.895515" y="0">Piracicaba</tspan></text></svg>