<svg xmlns="http://www.w3.org/2000/svg" width="123" height="157.5" viewBox="0 0 123 157.5"><defs><clipPath id="a"><path d="M0 126h352V0H0v126z"/></clipPath></defs><g clip-path="url(#a)" transform="matrix(1.25 0 0 -1.25 0 157.5)"><path d="M78.13 43.059a1.76 1.76 0 0 0-1.76-1.76H61.83a1.76 1.76 0 0 0-1.761 1.76v14.546a1.76 1.76 0 0 0 1.76 1.759h14.543a1.76 1.76 0 0 0 1.76-1.76V43.06zM56.457 86.41a1.76 1.76 0 0 0-1.762-1.76H40.152c-.972 0-1.759.787-1.759 1.76v14.545c0 .973.787 1.76 1.759 1.76h14.543c.972 0 1.762-.787 1.762-1.76V86.41zm21.673 0a1.76 1.76 0 0 0-1.76-1.76H61.83a1.76 1.76 0 0 0-1.761 1.76v14.545c0 .973.788 1.76 1.76 1.76h14.543a1.76 1.76 0 0 0 1.76-1.76V86.41zM34.781 64.747c0-.97-.79-1.758-1.76-1.758H18.476c-.972 0-1.759.788-1.759 1.758v14.546c0 .973.787 1.76 1.76 1.76H33.02c.97 0 1.76-.787 1.76-1.76V64.747zm21.676 0c0-.97-.79-1.758-1.762-1.758H40.152c-.972 0-1.759.788-1.759 1.758v14.546c0 .973.787 1.76 1.759 1.76h14.543c.972 0 1.762-.787 1.762-1.76V64.747zM34.781 43.059c0-.973-.79-1.76-1.76-1.76H18.476c-.972 0-1.759.787-1.759 1.76v14.546c0 .97.787 1.759 1.76 1.759H33.02c.97 0 1.76-.788 1.76-1.76V43.06zm21.676 0c0-.973-.79-1.76-1.762-1.76H40.152c-.972 0-1.759.787-1.759 1.76v14.546c0 .97.787 1.759 1.759 1.759h14.543c.972 0 1.762-.788 1.762-1.76V43.06zM34.781 21.36c0-.97-.79-1.76-1.76-1.76H18.476a1.76 1.76 0 0 0-1.759 1.76v14.55c0 .968.787 1.755 1.76 1.755H33.02c.97 0 1.76-.787 1.76-1.756V21.36zm21.676 0c0-.97-.79-1.76-1.762-1.76H40.152a1.76 1.76 0 0 0-1.759 1.76v14.55c0 .968.787 1.755 1.759 1.755h14.543a1.76 1.76 0 0 0 1.762-1.756V21.36z" fill="#3da33c"/><path d="M35.683 93.683c0-5.487-4.446-9.934-9.936-9.934-5.487 0-9.934 4.447-9.934 9.934 0 5.487 4.447 9.937 9.934 9.937 5.49 0 9.936-4.45 9.936-9.937" fill="#cd1e25"/></g></svg>