<svg xmlns="http://www.w3.org/2000/svg" width="440" height="157.5" viewBox="0 0 440 157.5"><defs><clipPath id="a"><path d="M0 126h352V0H0v126z"/></clipPath></defs><g clip-path="url(#a)" transform="matrix(1.25 0 0 -1.25 0 157.5)"><path d="M78.13 43.059a1.76 1.76 0 0 0-1.76-1.76H61.83a1.76 1.76 0 0 0-1.761 1.76v14.546a1.76 1.76 0 0 0 1.76 1.759h14.543a1.76 1.76 0 0 0 1.76-1.76V43.06zM56.457 86.41a1.76 1.76 0 0 0-1.762-1.76H40.152c-.972 0-1.759.787-1.759 1.76v14.545c0 .973.787 1.76 1.759 1.76h14.543c.972 0 1.762-.787 1.762-1.76V86.41zm21.673 0a1.76 1.76 0 0 0-1.76-1.76H61.83a1.76 1.76 0 0 0-1.761 1.76v14.545c0 .973.788 1.76 1.76 1.76h14.543a1.76 1.76 0 0 0 1.76-1.76V86.41zM34.781 64.747c0-.97-.79-1.758-1.76-1.758H18.476c-.972 0-1.759.788-1.759 1.758v14.546c0 .973.787 1.76 1.76 1.76H33.02c.97 0 1.76-.787 1.76-1.76V64.747zm21.676 0c0-.97-.79-1.758-1.762-1.758H40.152c-.972 0-1.759.788-1.759 1.758v14.546c0 .973.787 1.76 1.759 1.76h14.543c.972 0 1.762-.787 1.762-1.76V64.747zM34.781 43.059c0-.973-.79-1.76-1.76-1.76H18.476c-.972 0-1.759.787-1.759 1.76v14.546c0 .97.787 1.759 1.76 1.759H33.02c.97 0 1.76-.788 1.76-1.76V43.06zm21.676 0c0-.973-.79-1.76-1.762-1.76H40.152c-.972 0-1.759.787-1.759 1.76v14.546c0 .97.787 1.759 1.759 1.759h14.543c.972 0 1.762-.788 1.762-1.76V43.06zM34.781 21.36c0-.97-.79-1.76-1.76-1.76H18.476a1.76 1.76 0 0 0-1.759 1.76v14.55c0 .968.787 1.755 1.76 1.755H33.02c.97 0 1.76-.787 1.76-1.756V21.36zm21.676 0c0-.97-.79-1.76-1.762-1.76H40.152a1.76 1.76 0 0 0-1.759 1.76v14.55c0 .968.787 1.755 1.759 1.755h14.543a1.76 1.76 0 0 0 1.762-1.756V21.36z" fill="#3da33c"/><path d="M35.683 93.683c0-5.487-4.446-9.934-9.936-9.934-5.487 0-9.934 4.447-9.934 9.934 0 5.487 4.447 9.937 9.934 9.937 5.49 0 9.936-4.45 9.936-9.937" fill="#cd1e25"/></g><text transform="matrix(1.25 0 0 1.24784 110.641 78.267)" style="-inkscape-font-specification:OpenSans-Bold" font-weight="700" font-size="25.217" font-family="Open Sans" fill="#fff"><tspan x="0 8.3721437 28.924244 42.869411 57.470226 65.817154 80.493622 99.608337 114.23437 134.35777 140.96471 154.85944 168.98112 187.64192 201.76361 218.5079 235.95828" y="0">INSTITUTO FEDERAL</tspan></text><text transform="matrix(1.25 0 0 1.24784 111.221 106.094)" style="-inkscape-font-specification:OpenSans" font-weight="400" font-size="19.054" font-family="Open Sans" fill="#fff"><tspan x="0 10.460646 21.05467 32.563286 37.517326 48.987835 59.58186 71.281013 76.101677" y="0">São Paulo</tspan></text><text transform="matrix(1.25 0 0 1.24784 111.221 133.115)" style="-inkscape-font-specification:OpenSans" font-weight="400" font-size="19.055" font-family="Open Sans" fill="#fff"><tspan x="0 12.02339 22.617691 40.338375 52.018784 63.718246 72.807243 77.761414 89.232224 94.053009 101.82725 112.42155 121.49149 126.31228 135.38222 145.97653 157.65694" y="0">Câmpus Piracicaba</tspan></text></svg>