<svg xmlns="http://www.w3.org/2000/svg" viewBox="0 0 509.287 509.287"><circle cx="254.644" cy="254.644" r="254.644" fill="#3da33c"/><path d="M254.644 0c-2.374 0-4.408 0-6.781.339v54.93c0 15.936 13.224 29.16 29.16 29.16h122.744c8.477 0 15.597 7.121 15.597 15.597s-7.121 15.597-15.597 15.597H119.015c-18.31 0-33.229 14.919-33.229 33.229s14.919 33.229 33.229 33.229h109.521c10.85 0 19.666 8.816 19.666 19.666v24.413h13.563v-24.413c0-18.31-14.919-33.229-33.229-33.229H119.015c-10.85 0-19.666-8.816-19.666-19.666s8.816-19.666 19.666-19.666h280.752c15.936 0 29.16-13.224 29.16-29.16s-13.224-29.16-29.16-29.16H277.023c-8.477 0-15.597-7.121-15.597-15.597V.339C259.052 0 257.017 0 254.644 0z" fill="#dededf"/><path d="M254.644 202.426c-49.844 0-90.532 40.35-90.532 90.532v109.86c0 49.844 40.35 90.532 90.532 90.532 49.844 0 90.532-40.35 90.532-90.532v-109.86c0-50.182-40.689-90.532-90.532-90.532z" fill="#fffffc"/><path d="M254.644 253.626c-5.764 0-10.511 4.747-10.511 10.511v36.62c0 5.764 4.747 10.511 10.511 10.511 5.764 0 10.511-4.747 10.511-10.511v-36.62c0-5.763-4.747-10.511-10.511-10.511z" fill="#bdbdbe"/></svg>